<svg xmlns="http://www.w3.org/2000/svg" viewBox="0 0 26 40" fill="none"><path d="M20.884 18.1691C23.4447 18.7436 25.3666 20.7517 25.8745 23.3826C25.9164 23.6027 25.9478 24.0913 25.9478 24.5638C25.9478 25.4389 25.8902 25.847 25.6546 26.5879C24.9476 28.8268 23.0677 30.5181 20.7635 30.9852C20.5488 31.0282 20.0723 31.0604 19.6114 31.0604C18.7579 31.0604 18.3599 31.0013 17.632 30.7597C15.7363 30.1262 14.181 28.5369 13.5683 26.5879C13.3326 25.847 13.275 25.4389 13.275 24.5638C13.275 24.0913 13.3065 23.6027 13.3483 23.3826C13.5054 22.5664 13.8458 21.6966 14.2857 20.9933L14.4638 20.7034L14.6523 21.1007C15.0817 22.0295 16.0348 22.6577 17.0193 22.6577C18.4332 22.6577 19.6376 21.4228 19.6376 19.9732C19.6376 19.4094 19.4334 18.8027 19.0982 18.3517C18.9726 18.1852 18.9307 18.0886 18.9726 18.0725C19.0982 18.0134 20.5069 18.0832 20.884 18.1691Z" fill="#FFFD01"/><path d="M25.974 3.66712V7.3396L25.1257 7.37181C18.318 7.6349 12.0392 11.8711 9.0333 18.2282C7.9336 20.5584 7.33138 22.9315 7.17428 25.5678C7.14286 26.0617 7.12191 29.3852 7.12191 33.2188V40H3.56095H0V32.6765C0 28.2201 0.020946 25.0899 0.0523662 24.6658C0.691243 16.3329 4.9801 8.90738 11.793 4.32751C15.8044 1.63221 20.664 0.0912781 25.3875 0.0107384L25.974 0V3.66712Z" fill="white"/></svg>
